<svg id="svg" version="1.1" xmlns="http://www.w3.org/2000/svg" xmlns:xlink="http://www.w3.org/1999/xlink" width="400" height="394.35626102292764" viewBox="0, 0, 400,394.35626102292764"><g id="svgg"><path id="path0" d="M200.789 26.804 C 200.464 26.985,199.520 27.462,198.693 27.866 C 197.107 28.639,195.266 30.702,195.266 31.706 C 195.266 32.033,195.089 32.410,194.872 32.544 C 194.171 32.977,194.353 65.089,195.065 66.794 C 197.881 73.533,209.433 73.250,211.440 66.393 C 211.877 64.899,211.877 32.793,211.440 31.622 C 211.202 30.985,209.168 28.709,208.986 28.876 C 208.915 28.941,208.429 28.595,207.905 28.107 C 207.381 27.618,206.641 27.219,206.261 27.219 C 205.880 27.219,205.460 27.041,205.325 26.824 C 205.034 26.353,201.630 26.338,200.789 26.804 M138.560 39.545 C 137.855 39.771,137.278 40.108,137.278 40.294 C 137.278 40.479,137.077 40.631,136.830 40.631 C 136.199 40.631,134.708 42.321,134.072 43.758 C 133.777 44.425,133.401 44.970,133.237 44.970 C 132.787 44.970,132.879 50.409,133.333 50.690 C 133.550 50.824,133.728 51.279,133.728 51.700 C 133.728 52.121,133.905 52.465,134.122 52.465 C 134.339 52.465,134.517 52.791,134.517 53.189 C 134.517 53.586,134.650 54.045,134.813 54.208 C 134.975 54.370,135.123 54.622,135.141 54.767 C 135.254 55.690,135.937 57.587,136.554 58.690 C 136.952 59.402,137.278 60.334,137.278 60.762 C 137.278 61.189,137.436 61.538,137.630 61.538 C 137.823 61.538,138.095 62.027,138.234 62.623 C 138.373 63.220,138.858 64.507,139.313 65.483 C 139.767 66.460,140.276 67.613,140.443 68.047 C 140.610 68.481,141.211 69.866,141.778 71.124 C 142.345 72.382,143.028 74.113,143.295 74.970 C 143.563 75.827,143.916 76.529,144.080 76.529 C 144.244 76.529,144.379 76.884,144.379 77.318 C 144.379 77.751,144.528 78.107,144.710 78.107 C 144.892 78.107,145.230 78.521,145.461 79.028 C 146.671 81.685,154.183 83.008,156.612 80.992 C 159.252 78.802,160.552 77.136,160.552 75.942 C 160.552 75.614,160.723 75.345,160.933 75.345 C 161.142 75.345,161.275 74.369,161.229 73.176 C 161.182 71.983,161.011 71.006,160.848 71.006 C 160.685 71.006,160.552 70.573,160.552 70.043 C 160.552 69.513,160.375 68.970,160.158 68.836 C 159.941 68.702,159.763 68.248,159.763 67.827 C 159.763 67.406,159.586 67.061,159.369 67.061 C 159.152 67.061,158.974 66.706,158.974 66.272 C 158.974 65.838,158.819 65.483,158.629 65.483 C 158.439 65.483,158.180 64.964,158.053 64.329 C 157.839 63.259,157.266 61.842,155.410 57.791 C 155.012 56.923,154.570 55.769,154.428 55.227 C 154.013 53.641,153.283 52.071,152.961 52.071 C 152.797 52.071,152.663 51.823,152.663 51.521 C 152.663 51.014,151.032 46.922,149.627 43.902 C 147.854 40.091,142.917 38.147,138.560 39.545 M260.447 40.026 C 258.393 41.112,257.199 42.154,257.199 42.862 C 257.199 43.154,257.022 43.393,256.805 43.393 C 256.588 43.393,256.410 43.712,256.410 44.103 C 256.410 44.493,256.221 45.002,255.990 45.233 C 255.758 45.465,255.476 46.254,255.362 46.989 C 255.249 47.723,254.994 48.383,254.797 48.455 C 254.599 48.527,254.438 48.937,254.438 49.366 C 254.438 49.794,254.260 50.035,254.043 49.901 C 253.826 49.767,253.649 49.937,253.649 50.278 C 253.649 50.619,253.493 51.207,253.303 51.583 C 252.378 53.413,251.677 55.330,251.677 56.029 C 251.677 56.456,251.499 56.805,251.282 56.805 C 251.065 56.805,250.888 57.066,250.888 57.384 C 250.888 57.703,250.533 58.596,250.099 59.369 C 249.665 60.141,249.310 61.034,249.310 61.353 C 249.310 61.672,249.143 61.933,248.939 61.933 C 248.736 61.933,248.449 62.732,248.303 63.708 C 248.156 64.684,247.879 65.483,247.687 65.483 C 247.495 65.483,247.337 65.663,247.337 65.882 C 247.337 66.101,246.997 67.033,246.580 67.953 C 242.625 76.687,248.470 83.950,257.566 81.605 C 257.877 81.525,258.657 80.971,259.301 80.375 C 259.945 79.778,260.590 79.290,260.734 79.290 C 260.879 79.290,261.241 78.669,261.538 77.909 C 261.836 77.150,262.225 76.529,262.401 76.529 C 262.578 76.529,262.722 76.268,262.722 75.949 C 262.722 75.630,263.207 74.343,263.800 73.089 C 264.392 71.835,264.898 70.631,264.922 70.414 C 264.984 69.880,265.461 68.592,265.907 67.757 C 266.108 67.380,266.272 66.803,266.272 66.475 C 266.272 66.146,266.450 65.878,266.667 65.878 C 266.884 65.878,267.061 65.632,267.061 65.331 C 267.061 65.030,267.326 64.276,267.650 63.655 C 267.975 63.033,268.241 62.214,268.242 61.834 C 268.243 61.455,268.422 61.144,268.639 61.144 C 268.856 61.144,269.034 60.878,269.034 60.554 C 269.034 60.229,269.655 58.619,270.414 56.975 C 271.174 55.331,271.795 53.654,271.795 53.249 C 271.795 52.844,271.972 52.402,272.189 52.268 C 272.406 52.134,272.584 51.680,272.584 51.259 C 272.584 50.838,272.761 50.493,272.978 50.493 C 273.201 50.493,273.373 49.375,273.373 47.929 C 273.373 46.483,273.201 45.365,272.978 45.365 C 272.761 45.365,272.584 45.096,272.584 44.768 C 272.584 43.872,270.931 41.518,269.921 40.975 C 269.433 40.713,269.034 40.350,269.034 40.170 C 269.034 39.990,268.689 39.842,268.268 39.842 C 267.847 39.842,267.392 39.665,267.258 39.448 C 266.791 38.691,262.242 39.077,260.447 40.026 M87.377 74.162 C 87.243 74.379,86.788 74.556,86.367 74.556 C 85.946 74.556,85.602 74.734,85.602 74.951 C 85.602 75.168,85.356 75.345,85.056 75.345 C 84.260 75.345,81.657 78.368,81.657 79.291 C 81.657 79.724,81.479 80.079,81.262 80.079 C 81.043 80.079,80.868 81.131,80.868 82.446 C 80.868 83.761,81.043 84.813,81.262 84.813 C 81.479 84.813,81.657 85.176,81.657 85.621 C 81.657 87.052,82.697 88.487,86.257 91.971 C 88.175 93.846,90.302 95.977,90.984 96.704 C 95.287 101.295,104.127 109.665,104.673 109.665 C 105.032 109.665,105.325 109.842,105.325 110.059 C 105.325 110.276,105.740 110.454,106.246 110.454 C 106.752 110.454,107.291 110.578,107.443 110.730 C 107.862 111.149,110.848 111.220,110.848 110.811 C 110.848 110.614,111.381 110.454,112.032 110.454 C 112.682 110.454,113.215 110.276,113.215 110.059 C 113.215 109.842,113.410 109.665,113.648 109.665 C 114.279 109.665,116.285 107.411,116.936 105.971 C 117.692 104.299,118.333 100.986,117.901 100.986 C 117.710 100.986,117.554 100.531,117.554 99.974 C 117.554 98.955,117.008 97.658,116.210 96.782 C 112.763 93.000,94.821 75.345,94.425 75.345 C 94.128 75.345,93.886 75.168,93.886 74.951 C 93.886 74.734,93.442 74.556,92.899 74.556 C 92.357 74.556,91.913 74.379,91.913 74.162 C 91.913 73.945,90.947 73.767,89.767 73.767 C 88.586 73.767,87.511 73.945,87.377 74.162 M314.398 74.162 C 314.398 74.379,314.138 74.556,313.819 74.556 C 313.500 74.556,312.629 74.899,311.884 75.317 C 311.139 75.736,310.409 75.958,310.261 75.810 C 310.114 75.663,310.047 75.720,310.112 75.937 C 310.177 76.154,305.643 80.929,300.037 86.547 C 288.569 98.043,288.108 98.689,288.487 102.743 C 288.889 107.054,290.828 109.330,295.266 110.701 C 296.793 111.173,300.691 110.493,301.770 109.566 C 302.212 109.186,302.709 108.876,302.875 108.876 C 303.041 108.876,304.179 107.855,305.403 106.607 C 306.627 105.360,307.865 104.143,308.154 103.903 C 308.442 103.663,309.052 103.041,309.507 102.522 C 309.963 102.003,311.916 100.028,313.847 98.133 C 315.777 96.239,318.223 93.798,319.281 92.709 C 320.339 91.620,321.360 90.730,321.549 90.730 C 321.739 90.730,321.893 90.464,321.893 90.138 C 321.893 89.813,322.062 89.546,322.269 89.546 C 322.685 89.546,324.768 86.534,324.998 85.602 C 325.371 84.084,325.516 81.625,325.270 80.985 C 325.121 80.595,324.991 80.187,324.982 80.079 C 324.860 78.655,322.243 75.386,321.203 75.358 C 320.932 75.351,320.710 75.168,320.710 74.951 C 320.710 74.734,320.178 74.556,319.527 74.556 C 318.876 74.556,318.343 74.379,318.343 74.162 C 318.343 73.945,317.456 73.767,316.371 73.767 C 315.286 73.767,314.398 73.945,314.398 74.162 M52.859 126.243 C 52.534 126.404,51.736 126.778,51.085 127.075 C 49.575 127.762,47.409 130.083,47.084 131.361 C 46.947 131.903,46.705 132.525,46.548 132.742 C 46.141 133.304,46.178 136.852,46.595 137.109 C 46.786 137.228,46.943 137.636,46.943 138.016 C 46.943 138.396,47.262 139.051,47.653 139.472 C 48.044 139.893,48.488 140.564,48.641 140.964 C 48.794 141.365,49.273 141.785,49.706 141.898 C 50.139 142.011,50.493 142.261,50.493 142.452 C 50.493 142.644,50.848 142.801,51.282 142.801 C 51.716 142.801,52.071 142.950,52.071 143.132 C 52.071 143.314,52.825 143.700,53.748 143.990 C 54.670 144.279,55.593 144.663,55.799 144.842 C 56.005 145.021,56.431 145.168,56.746 145.168 C 57.060 145.168,58.223 145.590,59.330 146.107 C 63.175 147.902,64.225 148.323,64.853 148.323 C 65.199 148.323,65.483 148.501,65.483 148.718 C 65.483 148.935,65.927 149.112,66.469 149.112 C 67.012 149.112,67.456 149.290,67.456 149.507 C 67.456 149.724,67.724 149.901,68.053 149.901 C 68.381 149.901,68.958 150.064,69.335 150.263 C 69.711 150.461,70.730 150.917,71.598 151.276 C 74.467 152.460,75.141 152.751,75.833 153.103 C 76.210 153.295,76.865 153.452,77.289 153.452 C 77.713 153.452,78.170 153.629,78.304 153.846 C 78.438 154.063,79.161 154.241,79.910 154.241 C 80.660 154.241,81.626 154.063,82.057 153.846 C 82.488 153.629,83.193 153.274,83.624 153.057 C 84.055 152.840,84.652 152.663,84.952 152.663 C 85.251 152.663,86.155 151.820,86.960 150.789 L 88.424 148.915 88.295 144.938 C 88.160 140.795,87.005 138.067,85.384 138.067 C 85.070 138.067,84.813 137.933,84.813 137.769 C 84.813 137.605,84.236 137.238,83.531 136.954 C 82.825 136.670,81.666 136.183,80.953 135.871 C 80.241 135.560,79.397 135.306,79.079 135.306 C 78.761 135.306,78.501 135.128,78.501 134.911 C 78.501 134.694,78.146 134.517,77.712 134.517 C 77.278 134.517,76.923 134.377,76.923 134.206 C 76.923 134.035,76.526 133.866,76.041 133.829 C 75.556 133.793,75.098 133.577,75.022 133.351 C 74.947 133.124,74.654 132.939,74.371 132.939 C 74.089 132.939,73.349 132.674,72.728 132.350 C 72.106 132.025,71.292 131.759,70.919 131.758 C 70.546 131.757,69.609 131.400,68.836 130.966 C 68.064 130.533,67.171 130.178,66.852 130.178 C 66.533 130.178,66.272 130.043,66.272 129.880 C 66.272 129.593,64.270 128.787,62.426 128.332 C 61.938 128.212,61.538 127.956,61.538 127.765 C 61.538 127.573,61.095 127.416,60.552 127.416 C 60.010 127.416,59.566 127.239,59.566 127.022 C 59.566 126.805,59.222 126.627,58.800 126.627 C 58.379 126.627,57.941 126.475,57.826 126.289 C 57.570 125.875,53.676 125.839,52.859 126.243 M348.314 126.245 C 347.994 126.401,346.961 126.906,346.018 127.367 C 345.075 127.828,344.143 128.205,343.945 128.205 C 343.747 128.205,342.666 128.649,341.542 129.191 C 340.417 129.734,339.309 130.178,339.078 130.179 C 338.847 130.180,337.785 130.624,336.718 131.165 C 335.651 131.707,334.546 132.150,334.262 132.150 C 333.979 132.150,333.166 132.504,332.455 132.937 C 331.745 133.370,330.764 133.726,330.276 133.726 C 329.788 133.727,329.389 133.905,329.389 134.122 C 329.389 134.339,329.034 134.517,328.600 134.517 C 328.166 134.517,327.811 134.675,327.811 134.868 C 327.811 135.062,327.322 135.334,326.726 135.474 C 325.487 135.763,320.718 138.054,320.105 138.654 C 319.016 139.721,317.949 141.645,317.949 142.543 C 317.949 143.093,317.771 143.653,317.554 143.787 C 317.056 144.095,317.041 146.142,317.530 147.047 C 317.734 147.424,318.002 148.211,318.125 148.798 C 318.398 150.100,320.485 152.326,322.091 153.027 C 322.742 153.311,323.582 153.701,323.959 153.892 C 324.897 154.369,328.205 154.334,328.205 153.846 C 328.205 153.629,328.563 153.452,328.999 153.452 C 329.436 153.452,330.102 153.283,330.479 153.076 C 330.855 152.870,331.874 152.411,332.742 152.057 C 333.609 151.703,334.628 151.250,335.005 151.052 C 335.381 150.853,335.958 150.690,336.287 150.690 C 336.615 150.690,336.884 150.513,336.884 150.296 C 336.884 150.079,337.203 149.901,337.594 149.901 C 337.984 149.901,338.472 149.760,338.679 149.586 C 338.885 149.413,340.030 148.936,341.223 148.525 C 342.416 148.115,343.824 147.556,344.350 147.283 C 344.877 147.009,345.454 146.876,345.632 146.986 C 345.811 147.096,345.957 146.999,345.957 146.769 C 345.957 146.539,346.322 146.351,346.769 146.351 C 347.216 146.351,347.484 146.193,347.365 146.001 C 347.180 145.701,348.402 145.311,350.197 145.095 C 350.468 145.063,350.690 144.888,350.690 144.707 C 350.690 144.527,351.045 144.379,351.479 144.379 C 351.913 144.379,352.268 144.201,352.268 143.984 C 352.268 143.767,352.712 143.590,353.254 143.590 C 353.797 143.590,354.241 143.456,354.241 143.292 C 354.241 143.128,354.818 142.742,355.523 142.435 C 357.481 141.582,358.554 140.703,358.567 139.941 C 358.574 139.561,358.713 139.249,358.876 139.247 C 359.038 139.246,359.393 138.767,359.665 138.183 C 360.253 136.915,360.332 131.755,359.763 131.755 C 359.546 131.755,359.369 131.400,359.369 130.966 C 359.369 130.533,359.191 130.178,358.974 130.178 C 358.757 130.178,358.580 129.993,358.580 129.767 C 358.580 127.396,351.169 124.854,348.314 126.245 M39.546 187.909 C 39.058 188.153,38.659 188.488,38.659 188.654 C 38.659 188.819,38.405 188.955,38.096 188.955 C 37.358 188.955,35.108 191.696,35.108 192.595 C 35.108 192.979,34.931 193.294,34.714 193.294 C 34.491 193.294,34.320 194.412,34.320 195.858 C 34.320 197.304,34.491 198.422,34.714 198.422 C 34.931 198.422,35.108 198.811,35.108 199.285 C 35.108 200.264,36.673 202.755,37.290 202.759 C 37.513 202.760,37.952 203.116,38.264 203.550 C 38.577 203.984,39.138 204.339,39.512 204.339 C 39.885 204.339,40.300 204.517,40.434 204.734 C 41.473 206.415,74.951 204.903,74.951 203.175 C 74.951 202.948,75.178 202.761,75.455 202.761 C 76.860 202.761,78.501 199.117,78.501 195.997 C 78.501 192.270,75.701 188.166,73.158 188.166 C 72.817 188.166,72.642 187.996,72.771 187.788 C 73.122 187.220,40.687 187.339,39.546 187.909 M333.136 187.771 C 333.002 187.988,332.548 188.166,332.127 188.166 C 331.705 188.166,331.361 188.343,331.361 188.560 C 331.361 188.777,331.152 188.955,330.896 188.955 C 330.192 188.955,327.811 191.715,327.811 192.531 C 327.811 192.925,327.633 193.357,327.416 193.491 C 327.199 193.625,327.022 194.878,327.022 196.276 C 327.022 197.707,327.194 198.817,327.416 198.817 C 327.633 198.817,327.811 199.085,327.811 199.414 C 327.811 200.963,329.792 203.131,332.244 204.264 C 334.583 205.345,362.873 205.613,365.834 204.582 C 370.513 202.953,372.978 198.058,371.539 193.254 C 370.944 191.267,367.984 188.166,366.683 188.166 C 366.349 188.166,366.075 187.988,366.075 187.771 C 366.075 187.515,360.363 187.377,349.727 187.377 C 339.255 187.377,333.292 187.518,333.136 187.771 M78.107 238.569 C 78.107 238.737,77.352 239.066,76.430 239.300 C 74.148 239.880,70.838 241.157,70.677 241.519 C 70.605 241.681,70.205 241.815,69.790 241.815 C 69.374 241.815,69.034 241.970,69.034 242.160 C 69.034 242.434,67.570 242.910,66.470 242.994 C 66.365 243.002,65.650 243.361,64.882 243.792 C 64.115 244.223,63.137 244.576,62.710 244.576 C 62.283 244.576,61.933 244.753,61.933 244.970 C 61.933 245.187,61.608 245.365,61.211 245.365 C 60.814 245.365,59.615 245.808,58.548 246.349 C 57.481 246.891,56.386 247.335,56.114 247.336 C 55.843 247.337,55.621 247.515,55.621 247.732 C 55.621 247.949,55.178 248.126,54.635 248.126 C 54.093 248.126,53.649 248.304,53.649 248.521 C 53.649 248.738,53.365 248.915,53.018 248.915 C 52.140 248.915,49.571 250.150,49.202 250.748 C 49.035 251.020,48.645 251.496,48.335 251.805 C 46.507 253.634,45.102 260.355,46.548 260.355 C 46.765 260.355,46.943 260.710,46.943 261.144 C 46.943 261.578,47.120 261.933,47.337 261.933 C 47.554 261.933,47.732 262.181,47.732 262.484 C 47.732 262.787,48.359 263.586,49.126 264.259 C 50.407 265.384,50.975 265.656,51.775 265.530 C 51.938 265.504,52.071 265.661,52.071 265.878 C 52.071 266.334,57.309 266.425,57.758 265.976 C 57.921 265.814,58.172 265.672,58.317 265.661 C 58.973 265.613,60.744 264.946,62.919 263.928 C 64.221 263.318,66.085 262.513,67.061 262.139 C 68.037 261.764,69.145 261.298,69.521 261.103 C 69.898 260.909,70.475 260.750,70.803 260.750 C 71.132 260.750,71.400 260.572,71.400 260.355 C 71.400 260.138,71.661 259.961,71.979 259.961 C 72.297 259.961,73.229 259.670,74.050 259.314 C 74.871 258.959,75.986 258.494,76.529 258.282 C 77.071 258.070,77.823 257.739,78.200 257.548 C 78.577 257.356,79.153 257.199,79.482 257.199 C 79.810 257.199,80.079 257.022,80.079 256.805 C 80.079 256.588,80.423 256.410,80.845 256.410 C 81.266 256.410,81.706 256.256,81.823 256.067 C 81.939 255.878,82.561 255.618,83.205 255.489 C 83.848 255.361,85.228 254.438,86.270 253.439 L 88.166 251.623 88.166 247.212 C 88.166 241.989,86.268 239.053,82.892 239.053 C 82.430 239.053,82.051 238.876,82.051 238.659 C 82.051 238.442,81.164 238.264,80.079 238.264 C 78.994 238.264,78.107 238.401,78.107 238.569 M323.866 238.659 C 323.866 238.876,323.546 239.053,323.156 239.053 C 320.951 239.053,317.949 242.370,317.949 244.805 C 317.949 245.547,317.771 246.154,317.554 246.154 C 317.337 246.154,317.160 246.498,317.160 246.920 C 317.160 247.341,317.337 247.795,317.554 247.929 C 317.771 248.063,317.949 248.707,317.949 249.359 C 317.949 251.153,321.033 255.227,322.391 255.227 C 322.594 255.227,323.364 255.493,324.102 255.819 C 324.840 256.144,326.021 256.658,326.726 256.960 C 327.431 257.263,328.841 257.884,329.860 258.341 C 330.879 258.798,331.902 259.172,332.134 259.172 C 332.365 259.172,332.863 259.327,333.240 259.517 C 336.000 260.907,337.408 261.538,337.749 261.538 C 338.142 261.538,339.559 262.122,342.604 263.538 C 348.906 266.468,351.788 266.978,354.836 265.704 C 356.858 264.859,359.369 262.027,359.369 260.590 C 359.369 260.244,359.546 259.961,359.763 259.961 C 359.982 259.961,360.158 258.909,360.158 257.594 C 360.158 256.279,359.982 255.227,359.763 255.227 C 359.546 255.227,359.369 254.783,359.369 254.241 C 359.369 253.698,359.191 253.254,358.974 253.254 C 358.757 253.254,358.580 252.972,358.580 252.627 C 358.580 251.567,354.786 248.915,353.270 248.915 C 352.936 248.915,352.663 248.738,352.663 248.521 C 352.663 248.304,352.394 248.126,352.066 248.126 C 351.737 248.126,351.160 247.971,350.784 247.781 C 348.024 246.391,346.616 245.759,346.275 245.759 C 345.886 245.759,345.325 245.532,341.490 243.817 C 340.443 243.349,339.067 242.863,338.433 242.736 C 337.798 242.609,337.278 242.350,337.278 242.160 C 337.278 241.970,337.105 241.815,336.894 241.815 C 336.682 241.815,335.326 241.273,333.879 240.610 C 332.433 239.948,330.738 239.303,330.114 239.179 C 329.489 239.054,328.882 238.797,328.765 238.608 C 328.468 238.127,323.866 238.175,323.866 238.659 M106.903 281.657 C 106.903 281.874,106.484 282.051,105.971 282.051 C 103.767 282.051,81.657 304.182,81.657 306.388 C 81.657 306.889,81.479 307.298,81.262 307.298 C 80.768 307.298,80.741 311.014,81.229 311.938 C 81.428 312.315,81.860 313.247,82.189 314.009 C 82.855 315.548,84.501 317.160,85.407 317.160 C 85.731 317.160,85.996 317.318,85.996 317.511 C 85.996 318.008,91.234 318.733,91.696 318.300 C 91.902 318.107,92.391 317.949,92.781 317.949 C 93.172 317.949,93.805 317.638,94.188 317.258 C 94.571 316.879,95.414 316.224,96.062 315.805 C 96.709 315.385,97.593 314.591,98.026 314.041 C 98.459 313.491,99.146 312.770,99.554 312.438 C 99.961 312.106,100.494 311.606,100.739 311.326 C 100.983 311.047,101.681 310.337,102.289 309.748 C 102.898 309.160,103.696 308.344,104.065 307.934 C 104.433 307.525,105.252 306.726,105.885 306.159 C 106.518 305.592,107.317 304.791,107.660 304.379 C 108.418 303.468,109.296 302.583,110.296 301.720 C 114.042 298.490,117.550 293.987,117.553 292.406 C 117.554 291.918,117.687 291.519,117.850 291.519 C 118.210 291.519,118.180 289.252,117.815 288.887 C 117.672 288.743,117.554 288.195,117.554 287.668 C 117.554 285.909,114.695 282.615,112.821 282.214 C 112.278 282.099,111.526 281.837,111.149 281.633 C 110.236 281.139,106.903 281.157,106.903 281.657 M295.294 281.612 C 295.175 281.804,294.477 282.075,293.742 282.212 C 289.425 283.022,287.136 289.277,289.350 294.212 C 289.947 295.542,290.591 296.536,290.780 296.419 C 290.969 296.302,291.124 296.374,291.124 296.580 C 291.124 297.234,310.977 316.790,312.221 317.361 C 313.940 318.151,317.674 318.752,318.126 318.313 C 318.332 318.113,318.909 317.949,319.408 317.949 C 319.907 317.949,320.316 317.771,320.316 317.554 C 320.316 317.337,320.602 317.160,320.953 317.160 C 323.221 317.160,326.728 309.108,325.148 307.528 C 324.858 307.238,324.804 307.049,324.704 305.981 C 324.598 304.844,302.359 282.282,301.729 282.672 C 301.537 282.790,301.381 282.699,301.381 282.469 C 301.381 282.239,300.848 282.051,300.197 282.051 C 299.546 282.051,299.014 281.874,299.014 281.657 C 299.014 281.170,295.593 281.128,295.294 281.612 M251.895 310.419 C 251.749 310.655,251.310 310.848,250.920 310.848 C 247.491 310.848,243.870 318.759,245.719 322.213 C 245.943 322.631,246.014 323.085,245.877 323.222 C 245.740 323.359,245.835 323.471,246.088 323.471 C 246.341 323.471,246.548 323.816,246.548 324.237 C 246.548 324.658,246.726 325.112,246.943 325.247 C 247.160 325.381,247.337 325.835,247.337 326.256 C 247.337 326.677,247.492 327.022,247.680 327.022 C 247.869 327.022,248.124 327.645,248.248 328.406 C 248.371 329.168,248.838 330.304,249.285 330.932 C 249.733 331.561,250.099 332.446,250.099 332.901 C 250.099 333.356,250.276 333.728,250.493 333.728 C 250.710 333.728,250.888 334.083,250.888 334.517 C 250.888 334.951,251.065 335.306,251.282 335.306 C 251.499 335.306,251.678 335.705,251.679 336.193 C 251.680 336.681,251.947 337.589,252.271 338.211 C 252.595 338.832,252.860 339.587,252.860 339.887 C 252.860 340.188,253.037 340.434,253.254 340.434 C 253.471 340.434,253.649 340.778,253.649 341.200 C 253.649 341.621,253.826 342.075,254.043 342.209 C 254.260 342.343,254.438 342.797,254.438 343.219 C 254.438 343.640,254.571 343.984,254.734 343.984 C 254.896 343.984,255.375 345.127,255.796 346.524 C 256.218 347.921,256.669 348.999,256.797 348.920 C 256.926 348.840,257.259 349.287,257.536 349.913 C 259.429 354.191,271.795 353.584,271.795 349.213 C 271.795 348.915,271.972 348.781,272.189 348.915 C 272.406 349.049,272.584 348.804,272.584 348.370 C 272.584 347.936,272.761 347.471,272.978 347.337 C 273.936 346.745,273.284 340.989,272.151 340.039 C 272.022 339.931,271.789 339.322,271.633 338.685 C 271.477 338.049,271.006 336.818,270.586 335.949 C 270.166 335.080,269.822 334.047,269.822 333.654 C 269.822 333.261,269.645 332.939,269.428 332.939 C 269.211 332.939,269.034 332.584,269.034 332.150 C 269.034 331.716,268.856 331.361,268.639 331.361 C 268.422 331.361,268.245 330.985,268.245 330.526 C 268.245 330.068,267.623 328.365,266.864 326.744 C 266.105 325.122,265.483 323.631,265.483 323.431 C 265.483 323.230,265.314 322.758,265.108 322.381 C 264.901 322.004,264.443 320.986,264.089 320.118 C 263.734 319.250,263.282 318.232,263.083 317.855 C 262.884 317.479,262.722 316.902,262.722 316.573 C 262.722 316.245,262.544 315.976,262.327 315.976 C 262.110 315.976,261.933 315.621,261.933 315.187 C 261.933 314.753,261.755 314.398,261.538 314.398 C 261.321 314.398,261.144 314.222,261.144 314.007 C 261.144 313.395,259.482 311.637,258.903 311.637 C 258.617 311.637,258.383 311.480,258.383 311.287 C 258.383 310.568,252.306 309.755,251.895 310.419 M148.028 311.385 C 147.539 311.626,147.140 311.960,147.140 312.125 C 147.140 312.291,146.950 312.426,146.717 312.426 C 146.171 312.426,145.168 313.430,145.168 313.976 C 145.168 314.208,144.990 314.398,144.773 314.398 C 144.556 314.398,144.379 314.753,144.379 315.187 C 144.379 315.621,144.201 315.976,143.984 315.976 C 143.767 315.976,143.590 316.331,143.590 316.765 C 143.590 317.199,143.440 317.554,143.258 317.554 C 143.075 317.554,142.603 318.619,142.209 319.921 C 141.815 321.223,141.343 322.288,141.160 322.288 C 140.978 322.288,140.828 322.616,140.828 323.016 C 140.828 323.417,140.579 324.260,140.275 324.890 C 139.260 326.988,138.170 329.568,137.625 331.164 C 137.328 332.032,136.982 332.830,136.857 332.939 C 136.551 333.204,136.010 334.537,135.830 335.472 C 135.750 335.889,135.489 336.466,135.250 336.754 C 135.010 337.042,134.922 337.278,135.053 337.278 C 135.185 337.278,134.940 337.905,134.510 338.671 C 134.080 339.437,133.728 340.324,133.728 340.643 C 133.728 340.962,133.576 341.223,133.391 341.223 C 132.894 341.223,132.820 347.020,133.314 347.325 C 133.541 347.466,133.728 347.926,133.728 348.347 C 133.728 348.768,133.882 349.112,134.071 349.112 C 134.260 349.112,134.837 349.729,135.353 350.483 C 135.893 351.271,136.751 351.955,137.372 352.091 C 137.966 352.222,138.554 352.493,138.678 352.693 C 139.480 353.992,146.668 352.542,148.058 350.800 C 148.454 350.303,149.031 349.644,149.340 349.336 C 149.649 349.027,149.901 348.442,149.901 348.036 C 149.901 347.630,150.054 347.129,150.241 346.923 C 150.427 346.717,150.906 345.616,151.305 344.477 C 151.703 343.338,152.172 342.406,152.346 342.406 C 152.520 342.406,152.663 341.963,152.663 341.420 C 152.663 340.878,152.840 340.434,153.057 340.434 C 153.274 340.434,153.452 340.114,153.452 339.724 C 153.452 338.856,154.331 336.891,154.721 336.887 C 154.877 336.885,154.910 336.635,154.793 336.332 C 154.677 336.028,154.771 335.663,155.003 335.520 C 155.234 335.376,155.424 334.841,155.424 334.329 C 155.424 333.818,155.575 333.340,155.759 333.268 C 156.171 333.106,158.185 328.110,158.185 327.250 C 158.185 326.908,158.363 326.627,158.580 326.627 C 158.797 326.627,158.974 326.272,158.974 325.838 C 158.974 325.404,159.152 325.049,159.369 325.049 C 159.586 325.049,159.763 324.694,159.763 324.260 C 159.763 323.826,159.902 323.471,160.072 323.471 C 160.893 323.471,160.951 316.884,160.143 315.313 C 159.359 313.787,157.212 311.637,156.473 311.637 C 156.139 311.637,155.755 311.460,155.621 311.243 C 155.295 310.714,149.150 310.829,148.028 311.385 M199.431 320.728 C 197.420 321.732,195.909 323.297,195.113 325.202 C 194.299 327.151,194.133 359.369,194.938 359.369 C 195.191 359.369,195.287 359.480,195.151 359.616 C 194.491 360.275,197.883 364.497,199.072 364.497 C 199.366 364.497,199.606 364.675,199.606 364.892 C 199.606 365.122,200.916 365.286,202.749 365.286 C 207.016 365.286,209.574 363.816,211.173 360.445 C 211.958 358.792,212.202 326.112,211.433 325.637 C 211.213 325.501,211.135 325.224,211.259 325.022 C 211.384 324.820,211.298 324.655,211.069 324.655 C 210.839 324.655,210.651 324.422,210.651 324.137 C 210.651 321.293,202.974 318.961,199.431 320.728 " stroke="none" fill="#7ca4e4" fill-rule="evenodd"></path><path id="path1" d="M243.393 128.625 C 242.416 128.836,240.970 128.904,240.179 128.776 C 239.330 128.639,238.633 128.717,238.479 128.966 C 238.335 129.199,237.429 129.389,236.466 129.389 C 235.502 129.389,234.714 129.566,234.714 129.783 C 234.714 130.000,234.181 130.178,233.531 130.178 C 232.880 130.178,232.347 130.355,232.347 130.572 C 232.347 130.789,231.903 130.966,231.361 130.966 C 230.819 130.966,230.375 131.124,230.375 131.316 C 230.375 131.508,229.576 131.786,228.600 131.932 C 227.623 132.078,226.824 132.365,226.824 132.569 C 226.824 132.772,226.420 132.939,225.925 132.939 C 225.431 132.939,224.770 133.294,224.458 133.728 C 224.145 134.162,223.573 134.517,223.187 134.517 C 222.801 134.517,222.485 134.680,222.485 134.880 C 222.485 135.080,221.971 135.356,221.343 135.494 C 220.714 135.632,219.888 136.090,219.506 136.512 C 219.125 136.933,218.655 137.278,218.461 137.278 C 218.268 137.278,217.683 137.678,217.161 138.166 C 215.742 139.492,215.050 140.039,214.791 140.039 C 214.384 140.039,209.073 145.528,209.073 145.948 C 209.073 146.170,208.885 146.351,208.655 146.351 C 208.425 146.351,208.327 146.496,208.437 146.674 C 208.547 146.851,208.291 147.245,207.868 147.550 C 207.446 147.854,207.101 148.265,207.101 148.463 C 207.101 148.661,206.774 149.110,206.375 149.461 C 205.975 149.812,205.528 150.587,205.381 151.183 C 205.234 151.780,204.939 152.268,204.726 152.268 C 204.513 152.268,204.339 152.535,204.339 152.860 C 204.339 153.185,204.162 153.452,203.945 153.452 C 203.728 153.452,203.550 153.807,203.550 154.241 C 203.550 154.675,203.373 155.030,203.156 155.030 C 202.939 155.030,202.761 154.675,202.761 154.241 C 202.761 153.807,202.603 153.452,202.410 153.452 C 202.216 153.452,201.947 153.008,201.810 152.465 C 201.674 151.923,201.389 151.479,201.176 151.479 C 200.963 151.479,200.789 151.163,200.789 150.777 C 200.789 150.391,200.434 149.820,200.000 149.507 C 199.566 149.194,199.211 148.792,199.211 148.614 C 199.211 148.226,198.543 147.384,197.337 146.253 C 196.849 145.795,196.450 145.266,196.450 145.078 C 196.450 144.698,192.679 140.828,192.309 140.828 C 192.180 140.828,191.647 140.429,191.125 139.941 C 189.608 138.522,189.010 138.067,188.664 138.067 C 188.486 138.067,188.084 137.712,187.771 137.278 C 187.458 136.844,186.887 136.489,186.501 136.489 C 186.115 136.489,185.799 136.315,185.799 136.102 C 185.799 135.889,185.355 135.604,184.813 135.468 C 184.270 135.332,183.826 135.062,183.826 134.868 C 183.826 134.675,183.471 134.517,183.037 134.517 C 182.604 134.517,182.249 134.339,182.249 134.122 C 182.249 133.905,181.982 133.728,181.657 133.728 C 181.331 133.728,181.065 133.550,181.065 133.333 C 181.065 133.116,180.721 132.939,180.299 132.939 C 179.878 132.939,179.434 132.777,179.311 132.579 C 179.189 132.381,178.379 132.099,177.513 131.952 C 176.646 131.806,175.937 131.524,175.937 131.326 C 175.937 131.128,175.316 130.966,174.556 130.966 C 173.797 130.966,173.176 130.789,173.176 130.572 C 173.176 130.355,172.767 130.178,172.268 130.178 C 171.769 130.178,171.192 130.016,170.986 129.819 C 169.833 128.718,147.929 128.719,147.929 129.821 C 147.929 130.017,147.308 130.178,146.548 130.178 C 145.789 130.178,145.168 130.355,145.168 130.572 C 145.168 130.789,144.635 130.966,143.984 130.966 C 143.333 130.966,142.801 131.144,142.801 131.361 C 142.801 131.578,142.452 131.755,142.025 131.755 C 141.160 131.755,138.338 132.971,138.133 133.432 C 138.060 133.595,137.661 133.728,137.245 133.728 C 136.829 133.728,136.489 133.862,136.489 134.026 C 136.489 134.318,135.424 134.856,133.225 135.675 C 132.622 135.899,132.026 136.352,131.900 136.680 C 131.774 137.009,131.422 137.278,131.118 137.278 C 130.814 137.278,130.006 137.812,129.323 138.465 C 128.640 139.118,127.998 139.570,127.897 139.469 C 127.667 139.238,121.105 146.012,121.105 146.480 C 121.105 146.669,120.597 147.298,119.976 147.877 C 119.356 148.457,118.723 149.327,118.569 149.811 C 118.416 150.294,118.124 150.690,117.922 150.690 C 117.720 150.690,117.554 151.003,117.554 151.384 C 117.554 151.766,117.199 152.300,116.765 152.571 C 116.331 152.842,115.976 153.329,115.976 153.652 C 115.976 153.976,115.799 154.241,115.582 154.241 C 115.365 154.241,115.216 154.374,115.252 154.536 C 115.381 155.126,114.699 157.002,114.356 157.002 C 114.162 157.002,114.004 157.545,114.004 158.209 C 114.004 158.913,113.840 159.314,113.609 159.172 C 113.393 159.038,113.215 159.293,113.215 159.740 C 113.215 160.187,113.058 160.552,112.865 160.552 C 112.673 160.552,112.425 161.040,112.313 161.637 C 112.202 162.234,111.981 163.166,111.821 163.708 C 111.661 164.250,111.448 165.537,111.348 166.568 C 111.248 167.599,111.006 168.442,110.810 168.442 C 110.614 168.442,110.454 169.507,110.454 170.809 C 110.454 172.124,110.278 173.176,110.059 173.176 C 109.817 173.176,109.665 175.082,109.665 178.107 C 109.665 181.131,109.817 183.037,110.059 183.037 C 110.282 183.037,110.454 184.155,110.454 185.602 C 110.454 187.012,110.608 188.166,110.797 188.166 C 110.986 188.166,111.239 188.920,111.360 189.842 C 111.481 190.764,111.700 191.963,111.846 192.505 C 111.992 193.047,112.202 193.979,112.313 194.576 C 112.425 195.173,112.673 195.661,112.865 195.661 C 113.058 195.661,113.215 196.016,113.215 196.450 C 113.215 196.884,113.393 197.239,113.609 197.239 C 113.826 197.239,114.004 197.594,114.004 198.028 C 114.004 198.462,114.181 198.817,114.398 198.817 C 114.615 198.817,114.793 199.250,114.793 199.779 C 114.793 200.309,114.973 200.854,115.194 200.990 C 115.414 201.126,115.513 201.371,115.412 201.533 C 115.312 201.696,115.575 202.078,115.997 202.382 C 116.420 202.686,116.765 203.251,116.765 203.637 C 116.765 204.023,116.943 204.339,117.160 204.339 C 117.377 204.339,117.554 204.529,117.554 204.762 C 117.554 204.994,117.776 205.432,118.047 205.734 C 119.166 206.982,119.527 207.478,119.531 207.774 C 119.533 207.946,120.154 208.689,120.911 209.424 C 121.669 210.160,122.288 210.925,122.288 211.125 C 122.288 211.814,194.015 283.235,194.708 283.235 C 195.087 283.235,195.288 283.345,195.154 283.479 C 194.811 283.821,195.876 284.813,196.586 284.813 C 196.909 284.813,197.247 285.035,197.337 285.306 C 197.459 285.670,198.983 285.799,203.156 285.799 C 207.329 285.799,208.853 285.670,208.974 285.306 C 209.065 285.035,209.440 284.813,209.808 284.813 C 210.176 284.813,210.738 284.434,211.057 283.971 C 211.376 283.508,211.869 282.931,212.151 282.689 C 212.434 282.447,213.880 281.031,215.363 279.543 C 216.846 278.055,218.238 276.660,218.455 276.443 C 218.672 276.226,219.471 275.427,220.230 274.668 C 220.989 273.909,221.788 273.110,222.005 272.893 C 222.222 272.676,223.021 271.877,223.780 271.118 C 224.540 270.358,225.339 269.559,225.555 269.342 C 226.069 268.829,231.354 263.544,231.867 263.031 C 232.084 262.814,232.883 262.015,233.642 261.256 C 234.402 260.496,235.201 259.698,235.417 259.481 C 235.634 259.264,236.433 258.465,237.193 257.705 C 237.952 256.946,238.751 256.147,238.968 255.930 C 239.481 255.416,244.894 250.004,245.335 249.563 C 245.521 249.377,246.295 248.603,247.055 247.844 C 247.814 247.084,248.613 246.285,248.830 246.068 C 249.047 245.851,249.845 245.053,250.605 244.293 C 251.364 243.534,252.163 242.735,252.379 242.517 C 252.887 242.006,254.629 240.263,255.140 239.756 C 255.358 239.539,256.157 238.741,256.917 237.982 C 257.676 237.222,258.475 236.423,258.692 236.206 C 258.909 235.989,259.707 235.191,260.467 234.431 C 261.226 233.672,262.025 232.873,262.242 232.656 C 262.755 232.143,268.040 226.858,268.553 226.344 C 268.770 226.127,269.569 225.329,270.329 224.569 C 271.088 223.810,271.887 223.011,272.104 222.794 C 272.321 222.577,273.120 221.778,273.879 221.019 C 274.638 220.260,275.437 219.461,275.654 219.244 C 276.167 218.730,281.452 213.445,281.966 212.932 C 286.593 208.307,286.785 208.100,286.785 207.725 C 286.785 207.541,287.115 207.103,287.518 206.752 C 287.920 206.401,288.376 205.715,288.530 205.227 C 288.684 204.739,288.976 204.339,289.178 204.339 C 289.381 204.339,289.546 203.984,289.546 203.550 C 289.546 203.116,289.724 202.761,289.941 202.761 C 290.158 202.761,290.335 202.571,290.335 202.339 C 290.335 202.106,290.602 201.650,290.927 201.324 C 291.252 200.999,291.519 200.301,291.519 199.775 C 291.519 199.248,291.696 198.817,291.913 198.817 C 292.130 198.817,292.308 198.462,292.308 198.028 C 292.308 197.594,292.485 197.239,292.702 197.239 C 292.919 197.239,293.097 196.884,293.097 196.450 C 293.097 196.016,293.274 195.661,293.491 195.661 C 293.708 195.661,293.886 195.217,293.886 194.675 C 293.886 194.132,294.045 193.688,294.240 193.688 C 294.435 193.688,294.719 192.446,294.872 190.927 C 295.024 189.408,295.309 188.166,295.504 188.166 C 295.698 188.166,295.858 187.012,295.858 185.602 C 295.858 184.155,296.030 183.037,296.252 183.037 C 296.496 183.037,296.647 180.999,296.647 177.712 C 296.647 174.425,296.496 172.387,296.252 172.387 C 296.033 172.387,295.858 171.335,295.858 170.020 C 295.858 168.718,295.698 167.653,295.504 167.653 C 295.309 167.653,295.024 166.410,294.872 164.892 C 294.719 163.373,294.435 162.130,294.240 162.130 C 294.045 162.130,293.886 161.598,293.886 160.947 C 293.886 160.296,293.708 159.763,293.491 159.763 C 293.274 159.763,293.097 159.497,293.097 159.172 C 293.097 158.846,292.919 158.580,292.702 158.580 C 292.485 158.580,292.308 158.225,292.308 157.791 C 292.308 157.357,292.130 157.002,291.913 157.002 C 291.696 157.002,291.519 156.571,291.519 156.044 C 291.519 155.517,291.252 154.820,290.927 154.494 C 290.602 154.169,290.335 153.624,290.335 153.283 C 290.335 152.942,290.158 152.663,289.941 152.663 C 289.724 152.663,289.546 152.396,289.546 152.071 C 289.546 151.746,289.386 151.479,289.190 151.479 C 288.995 151.479,288.648 150.944,288.420 150.291 C 288.192 149.637,287.731 148.997,287.395 148.868 C 287.060 148.739,286.785 148.393,286.785 148.100 C 286.785 147.409,277.514 138.067,276.828 138.067 C 276.542 138.067,276.052 137.712,275.740 137.278 C 275.427 136.844,275.020 136.489,274.835 136.489 C 274.651 136.489,274.234 136.223,273.908 135.897 C 273.583 135.572,272.974 135.306,272.556 135.306 C 272.137 135.306,271.795 135.128,271.795 134.911 C 271.795 134.694,271.529 134.517,271.203 134.517 C 270.878 134.517,270.611 134.339,270.611 134.122 C 270.611 133.905,270.256 133.728,269.822 133.728 C 269.389 133.728,269.034 133.592,269.034 133.426 C 269.034 133.015,266.058 131.755,265.086 131.755 C 264.654 131.755,264.300 131.578,264.300 131.361 C 264.300 131.144,263.767 130.966,263.116 130.966 C 262.465 130.966,261.933 130.789,261.933 130.572 C 261.933 130.355,261.312 130.178,260.552 130.178 C 259.793 130.178,259.172 130.019,259.172 129.824 C 259.172 129.441,256.972 129.038,253.846 128.848 C 252.761 128.782,250.365 128.618,248.521 128.484 C 246.677 128.350,244.369 128.413,243.393 128.625 " stroke="none" fill="#fc5c5c" fill-rule="evenodd"></path><path id="path2" d="M245.070 73.176 C 245.074 74.043,245.155 74.352,245.249 73.861 C 245.344 73.371,245.340 72.661,245.241 72.283 C 245.143 71.906,245.066 72.308,245.070 73.176 M95.858 76.019 C 95.858 76.218,96.391 76.891,97.041 77.515 C 97.692 78.138,98.225 78.545,98.225 78.419 C 98.225 78.293,97.692 77.620,97.041 76.923 C 96.391 76.226,95.858 75.819,95.858 76.019 M100.197 80.440 C 100.197 80.587,100.907 81.401,101.775 82.249 C 102.643 83.096,103.353 83.685,103.353 83.558 C 103.353 83.431,102.643 82.617,101.775 81.750 C 100.907 80.882,100.197 80.292,100.197 80.440 M105.720 86.119 C 105.720 86.187,106.252 86.753,106.903 87.377 C 108.338 88.752,108.498 88.416,107.083 87.000 C 106.166 86.083,105.720 85.795,105.720 86.119 M109.270 89.431 C 109.270 89.630,109.803 90.303,110.454 90.927 C 111.105 91.551,111.637 91.958,111.637 91.831 C 111.637 91.705,111.105 91.032,110.454 90.335 C 109.803 89.639,109.270 89.232,109.270 89.431 M113.609 93.746 C 113.609 93.959,114.186 94.654,114.892 95.291 L 116.174 96.450 114.990 95.071 C 114.339 94.313,113.762 93.617,113.708 93.526 C 113.654 93.434,113.609 93.534,113.609 93.746 M329.219 189.575 C 328.367 190.427,328.443 190.637,329.389 190.047 C 329.822 189.776,330.178 189.419,330.178 189.254 C 330.178 188.799,329.903 188.891,329.219 189.575 M305.720 286.116 C 305.720 286.186,306.275 286.764,306.953 287.402 C 307.816 288.213,308.035 288.312,307.683 287.731 C 307.249 287.015,305.720 285.757,305.720 286.116 M92.523 293.706 C 91.107 295.122,91.267 295.458,92.702 294.083 C 93.353 293.459,93.886 292.893,93.886 292.826 C 93.886 292.501,93.440 292.789,92.523 293.706 M113.742 298.119 C 113.055 298.828,112.623 299.408,112.781 299.408 C 113.147 299.408,115.384 297.087,115.159 296.940 C 115.066 296.879,114.428 297.410,113.742 298.119 M319.921 300.394 C 320.657 301.154,321.348 301.775,321.457 301.775 C 321.565 301.775,321.052 301.154,320.316 300.394 C 319.580 299.635,318.889 299.014,318.780 299.014 C 318.672 299.014,319.185 299.635,319.921 300.394 M86.176 299.941 C 85.277 300.929,85.154 301.525,86.018 300.701 C 86.524 300.219,86.860 299.749,86.763 299.656 C 86.667 299.564,86.402 299.692,86.176 299.941 M260.355 312.772 C 260.355 313.016,260.520 313.215,260.721 313.215 C 260.922 313.215,261.167 313.526,261.267 313.905 C 261.419 314.488,261.454 314.495,261.493 313.954 C 261.518 313.601,261.272 313.091,260.947 312.821 C 260.538 312.481,260.355 312.466,260.355 312.772 M160.750 319.329 C 160.750 320.481,160.883 321.341,161.045 321.241 C 161.208 321.140,161.341 320.280,161.341 319.329 C 161.341 318.379,161.208 317.519,161.045 317.418 C 160.883 317.317,160.750 318.178,160.750 319.329 M245.062 319.132 C 245.062 319.892,245.143 320.202,245.242 319.822 C 245.342 319.443,245.342 318.821,245.242 318.442 C 245.143 318.062,245.062 318.373,245.062 319.132 M314.398 318.422 C 314.398 318.596,315.020 318.738,315.779 318.738 C 316.538 318.738,317.160 318.668,317.160 318.584 C 317.160 318.499,316.538 318.357,315.779 318.268 C 315.020 318.180,314.398 318.249,314.398 318.422 M88.663 318.622 C 89.154 318.717,89.864 318.713,90.241 318.614 C 90.618 318.515,90.217 318.438,89.349 318.443 C 88.481 318.447,88.173 318.528,88.663 318.622 M329.664 323.373 C 326.928 326.271,327.022 326.079,327.022 328.779 C 327.022 330.237,327.193 331.361,327.416 331.361 C 327.633 331.361,327.811 331.551,327.811 331.784 C 327.811 332.330,328.814 333.333,329.360 333.333 C 329.593 333.333,329.783 333.511,329.783 333.728 C 329.783 334.973,335.662 334.133,337.265 332.659 C 339.979 330.163,339.021 323.471,335.949 323.471 C 335.621 323.471,335.243 323.294,335.108 323.077 C 334.671 322.369,330.392 322.601,329.664 323.373 M330.572 328.402 C 330.572 330.593,330.331 330.963,329.467 330.099 C 328.895 329.526,328.836 327.811,329.389 327.811 C 329.606 327.811,329.783 327.456,329.783 327.022 C 329.783 326.588,329.961 326.233,330.178 326.233 C 330.394 326.233,330.572 327.209,330.572 328.402 M336.095 327.801 C 336.095 328.204,336.317 328.637,336.588 328.764 C 336.982 328.948,336.982 329.040,336.588 329.224 C 336.317 329.351,336.095 329.706,336.095 330.013 C 336.095 330.663,335.437 330.770,335.232 330.153 C 334.968 329.361,335.389 326.632,335.741 326.850 C 335.936 326.970,336.095 327.398,336.095 327.801 " stroke="none" fill="#5cacec" fill-rule="evenodd"></path><path id="path3" d="" stroke="none" fill="#d484a8" fill-rule="evenodd"></path><path id="path4" d="" stroke="none" fill="#100845c" fill-rule="evenodd"></path></g></svg>