<svg id="svg" version="1.1" xmlns="http://www.w3.org/2000/svg" xmlns:xlink="http://www.w3.org/1999/xlink" width="400" height="108.93118594436311" viewBox="0, 0, 400,108.93118594436311"><g id="svgg"><path id="path0" d="M52.833 7.984 C 52.833 8.066,52.603 8.215,52.320 8.313 C 51.988 8.429,51.740 8.669,51.617 8.996 C 51.513 9.273,51.368 9.500,51.297 9.500 C 51.225 9.500,51.167 11.530,51.167 14.012 L 51.167 18.523 51.671 19.256 C 52.559 20.548,54.336 20.675,55.483 19.529 L 56.083 18.928 56.133 14.275 L 56.182 9.623 55.757 8.981 C 55.524 8.628,55.145 8.293,54.916 8.235 C 54.687 8.178,54.500 8.064,54.500 7.982 C 54.500 7.900,54.125 7.833,53.667 7.833 C 53.208 7.833,52.833 7.901,52.833 7.984 M35.792 11.273 C 35.631 11.320,35.500 11.422,35.500 11.501 C 35.500 11.580,35.343 11.694,35.151 11.755 C 34.140 12.076,34.253 16.063,35.296 16.824 C 35.365 16.875,35.597 17.442,35.810 18.083 C 36.023 18.725,36.301 19.413,36.428 19.613 C 36.555 19.813,36.822 20.451,37.022 21.030 C 37.222 21.609,37.520 22.179,37.685 22.295 C 37.849 22.412,38.109 22.633,38.262 22.786 C 39.480 24.004,42.000 22.577,42.000 20.669 C 42.000 20.143,41.260 17.839,41.039 17.676 C 40.970 17.625,40.772 17.171,40.598 16.667 C 40.424 16.162,40.074 15.300,39.821 14.750 C 39.568 14.200,39.269 13.450,39.156 13.083 C 38.751 11.764,37.120 10.887,35.792 11.273 M69.833 11.303 C 69.230 11.577,68.671 12.058,68.570 12.390 C 68.510 12.588,68.372 12.862,68.263 13.000 C 68.154 13.137,67.888 13.775,67.670 14.417 C 67.453 15.058,67.225 15.621,67.162 15.667 C 67.100 15.713,66.884 16.200,66.681 16.750 C 66.478 17.300,66.130 18.125,65.908 18.583 C 65.037 20.378,65.206 21.973,66.346 22.719 C 67.224 23.294,68.418 23.338,69.016 22.819 C 69.236 22.627,69.511 22.418,69.625 22.354 C 69.740 22.289,69.991 21.789,70.183 21.243 C 70.375 20.697,70.589 20.212,70.658 20.167 C 70.727 20.121,70.939 19.633,71.128 19.083 C 71.317 18.533,71.653 17.708,71.875 17.250 C 72.097 16.792,72.419 15.985,72.590 15.458 C 72.762 14.931,72.962 14.500,73.035 14.500 C 73.107 14.500,73.167 14.162,73.167 13.750 C 73.167 13.338,73.092 13.000,73.000 13.000 C 72.908 13.000,72.833 12.860,72.833 12.689 C 72.833 11.735,70.876 10.831,69.833 11.303 M21.583 20.989 C 20.136 21.338,19.444 22.787,20.012 24.280 C 20.250 24.907,25.804 30.436,26.606 30.845 C 27.274 31.185,28.333 31.281,28.333 31.000 C 28.333 30.908,28.465 30.831,28.625 30.828 C 29.111 30.819,29.800 30.076,29.995 29.351 C 30.352 28.028,30.128 27.672,26.901 24.432 C 23.313 20.828,23.025 20.641,21.583 20.989 M83.667 21.244 C 82.649 21.809,77.387 27.414,77.265 28.063 C 77.134 28.761,77.274 29.667,77.513 29.667 C 77.598 29.667,77.667 29.766,77.667 29.888 C 77.667 30.194,78.378 30.833,78.719 30.833 C 78.874 30.833,79.000 30.908,79.000 31.000 C 79.000 31.092,79.337 31.167,79.750 31.167 C 80.162 31.167,80.500 31.100,80.500 31.018 C 80.500 30.936,80.669 30.827,80.875 30.775 C 81.767 30.550,87.295 24.647,87.422 23.785 C 87.740 21.630,85.591 20.177,83.667 21.244 M11.833 35.288 C 11.696 35.340,11.546 35.428,11.500 35.483 C 11.454 35.538,11.270 35.665,11.090 35.764 C 9.702 36.531,10.140 39.581,11.688 39.921 C 11.951 39.979,12.167 40.081,12.167 40.147 C 12.167 40.213,12.560 40.406,13.042 40.575 C 13.523 40.744,14.367 41.088,14.917 41.340 C 15.467 41.592,16.235 41.893,16.625 42.009 C 17.015 42.125,17.333 42.271,17.333 42.333 C 17.333 42.592,19.331 43.044,20.093 42.958 C 21.468 42.803,22.428 41.277,22.021 39.892 C 21.833 39.253,21.043 38.334,20.681 38.333 C 20.536 38.332,20.188 38.192,19.908 38.022 C 19.628 37.851,18.803 37.502,18.074 37.245 C 17.346 36.989,16.709 36.718,16.659 36.643 C 16.609 36.569,16.117 36.364,15.565 36.187 C 15.013 36.011,14.267 35.709,13.908 35.517 C 13.286 35.183,12.373 35.083,11.833 35.288 M93.498 35.471 C 93.178 35.638,92.429 35.952,91.833 36.168 C 91.237 36.385,90.712 36.610,90.667 36.669 C 90.621 36.727,89.965 36.989,89.208 37.250 C 88.452 37.511,87.833 37.777,87.833 37.841 C 87.833 37.904,87.491 38.053,87.072 38.170 C 85.424 38.631,84.577 40.910,85.653 41.987 C 85.844 42.177,86.000 42.403,86.000 42.487 C 86.000 43.131,88.490 43.098,89.794 42.436 C 90.256 42.202,91.111 41.847,91.692 41.647 C 92.274 41.447,92.787 41.230,92.833 41.164 C 92.879 41.098,93.423 40.874,94.042 40.666 C 94.660 40.458,95.167 40.232,95.167 40.162 C 95.167 40.093,95.373 39.985,95.625 39.922 C 96.115 39.799,96.667 39.380,96.667 39.129 C 96.667 39.045,96.779 38.864,96.917 38.726 C 97.067 38.576,97.167 38.168,97.167 37.707 C 97.167 35.850,95.136 34.613,93.498 35.471 M8.244 52.364 C 6.722 52.856,6.494 56.064,7.932 56.746 C 8.720 57.120,17.450 57.121,18.172 56.747 C 19.650 55.983,19.479 53.059,17.918 52.407 C 17.238 52.122,9.103 52.087,8.244 52.364 M89.612 52.337 C 87.849 52.866,87.565 55.863,89.195 56.728 C 89.696 56.993,90.221 57.017,94.556 56.969 L 99.363 56.917 99.769 56.417 C 99.992 56.142,100.248 55.826,100.337 55.715 C 101.006 54.888,100.126 52.666,99.000 52.338 C 98.299 52.134,90.291 52.133,89.612 52.337 M17.833 66.811 C 16.962 67.150,16.100 67.507,15.917 67.604 C 15.733 67.701,15.096 67.956,14.500 68.171 C 13.904 68.386,13.379 68.607,13.333 68.662 C 13.287 68.716,12.714 68.968,12.059 69.222 C 10.919 69.663,10.852 69.720,10.500 70.537 C 9.340 73.233,11.770 74.875,14.833 73.466 C 16.445 72.725,17.006 72.500,17.244 72.500 C 17.372 72.500,17.575 72.406,17.696 72.291 C 17.818 72.177,18.329 71.940,18.833 71.766 C 21.695 70.777,22.598 69.679,21.983 67.940 C 21.401 66.295,20.080 65.935,17.833 66.811 M87.169 66.292 C 86.142 66.478,85.167 67.687,85.167 68.773 C 85.167 70.084,86.151 71.000,88.292 71.681 C 88.956 71.893,89.500 72.120,89.500 72.186 C 89.500 72.252,90.119 72.511,90.875 72.761 C 91.631 73.011,92.291 73.278,92.340 73.353 C 92.516 73.621,93.887 74.000,94.677 74.000 C 97.826 74.000,98.124 70.221,95.060 69.145 C 94.523 68.956,94.046 68.745,94.000 68.675 C 93.954 68.606,93.429 68.383,92.833 68.180 C 92.237 67.977,91.600 67.714,91.417 67.596 C 91.233 67.479,90.596 67.217,90.000 67.014 C 89.404 66.811,88.767 66.579,88.583 66.500 C 88.067 66.275,87.622 66.209,87.169 66.292 M26.301 78.590 C 25.588 78.978,20.307 84.360,20.058 84.953 C 19.128 87.173,21.660 89.575,23.489 88.208 C 24.862 87.183,29.882 81.939,30.003 81.405 C 30.173 80.650,30.015 79.495,29.726 79.384 C 29.602 79.337,29.500 79.195,29.500 79.070 C 29.500 78.425,27.232 78.085,26.301 78.590 M78.468 78.515 C 77.453 78.906,76.926 80.526,77.453 81.636 C 77.723 82.206,82.407 87.056,83.640 88.042 C 84.311 88.579,85.779 88.697,86.226 88.250 C 86.364 88.112,86.548 88.000,86.636 88.000 C 86.887 88.000,87.298 87.273,87.423 86.608 C 87.679 85.245,87.541 85.036,84.132 81.618 L 80.950 78.429 79.933 78.386 C 79.374 78.362,78.715 78.420,78.468 78.515 M37.846 86.968 C 37.427 87.391,37.116 87.931,36.911 88.593 C 36.742 89.137,36.544 89.625,36.470 89.676 C 36.396 89.727,36.141 90.326,35.902 91.009 C 35.664 91.691,35.419 92.287,35.358 92.333 C 35.090 92.536,34.433 94.670,34.372 95.540 C 34.133 98.909,38.249 99.025,39.354 95.680 C 39.553 95.077,39.771 94.546,39.837 94.500 C 39.903 94.454,40.159 93.854,40.405 93.167 C 40.652 92.479,40.954 91.762,41.077 91.572 C 41.371 91.119,42.000 89.074,42.000 88.569 C 42.000 86.482,39.342 85.457,37.846 86.968 M66.309 86.616 C 65.169 87.323,65.059 89.869,66.112 91.194 C 66.209 91.316,66.455 91.904,66.658 92.499 C 66.861 93.094,67.085 93.619,67.156 93.665 C 67.226 93.712,67.449 94.230,67.651 94.817 C 68.510 97.318,69.139 97.993,70.614 97.998 C 71.796 98.001,72.286 97.778,72.615 97.087 C 72.769 96.764,72.956 96.500,73.031 96.500 C 73.106 96.500,73.167 96.125,73.167 95.667 C 73.167 95.208,73.107 94.833,73.034 94.833 C 72.962 94.833,72.690 94.196,72.431 93.417 C 72.172 92.638,71.910 92.000,71.848 92.000 C 71.786 92.000,71.519 91.362,71.255 90.583 C 70.990 89.804,70.723 89.167,70.660 89.167 C 70.597 89.167,70.420 88.773,70.266 88.292 C 69.685 86.474,67.814 85.682,66.309 86.616 M52.637 89.218 C 52.516 89.337,52.279 89.488,52.110 89.551 C 51.942 89.615,51.719 89.892,51.616 90.167 C 51.512 90.442,51.368 90.667,51.297 90.667 C 50.966 90.667,51.159 99.731,51.500 100.167 C 51.679 100.396,51.828 100.671,51.830 100.778 C 51.837 101.143,53.268 101.554,54.125 101.438 C 55.027 101.315,55.909 100.481,56.087 99.583 C 56.388 98.061,56.088 90.414,55.712 90.010 C 54.820 89.053,53.220 88.641,52.637 89.218 M88.423 89.993 C 87.926 90.543,87.881 91.768,88.340 92.257 C 89.312 93.292,91.333 92.561,91.333 91.174 C 91.333 89.887,89.274 89.052,88.423 89.993 M89.000 91.250 C 89.000 91.571,88.930 91.833,88.846 91.833 C 88.656 91.833,88.541 91.354,88.636 90.958 C 88.757 90.449,89.000 90.644,89.000 91.250 M90.596 91.611 C 90.428 92.049,90.195 91.594,90.302 91.035 C 90.385 90.602,90.390 90.600,90.548 90.953 C 90.637 91.152,90.658 91.448,90.596 91.611 " stroke="none" fill="#7ba4e3" fill-rule="evenodd"></path><path id="path1" d="M38.184 36.253 C 37.506 36.376,36.906 36.543,36.850 36.624 C 36.795 36.705,36.279 36.945,35.704 37.157 C 35.129 37.370,34.604 37.630,34.538 37.735 C 34.471 37.840,34.248 37.999,34.042 38.088 C 33.137 38.479,30.677 40.923,30.027 42.076 C 29.875 42.347,29.636 42.700,29.496 42.859 C 29.356 43.019,29.096 43.584,28.919 44.116 C 28.741 44.648,28.549 45.121,28.492 45.167 C 27.687 45.809,27.697 52.695,28.504 54.141 C 28.589 54.292,28.852 54.893,29.088 55.475 C 29.325 56.057,29.664 56.690,29.843 56.882 C 30.021 57.073,30.167 57.337,30.167 57.469 C 30.167 57.730,51.157 78.789,51.833 79.207 C 52.740 79.766,55.156 79.697,55.593 79.099 C 55.699 78.953,55.851 78.833,55.930 78.833 C 56.194 78.833,76.342 58.593,76.835 57.833 C 77.102 57.421,77.426 56.971,77.555 56.833 C 77.835 56.535,78.500 55.053,78.500 54.729 C 78.500 54.603,78.570 54.500,78.655 54.500 C 79.601 54.500,79.617 45.178,78.672 44.863 C 78.577 44.831,78.500 44.701,78.500 44.574 C 78.500 44.163,77.687 42.490,77.170 41.837 C 76.893 41.488,76.667 41.147,76.667 41.079 C 76.667 40.846,74.166 38.575,73.547 38.247 C 73.205 38.065,72.801 37.794,72.649 37.645 C 72.497 37.496,71.971 37.241,71.478 37.079 C 70.986 36.917,70.546 36.733,70.500 36.670 C 69.919 35.871,61.781 35.850,61.167 36.645 C 61.121 36.705,60.633 36.932,60.083 37.151 C 59.533 37.370,58.928 37.688,58.739 37.858 C 58.550 38.028,58.316 38.167,58.219 38.167 C 58.121 38.167,57.751 38.437,57.396 38.767 C 57.041 39.097,56.581 39.481,56.375 39.619 C 56.169 39.758,56.000 39.931,56.000 40.003 C 56.000 40.074,55.756 40.394,55.458 40.713 C 54.610 41.620,54.440 41.844,54.071 42.546 C 53.725 43.202,53.167 43.130,53.167 42.429 C 53.167 42.312,52.979 42.013,52.750 41.766 C 52.521 41.518,52.333 41.253,52.333 41.175 C 52.333 40.949,49.316 38.167,49.070 38.167 C 48.947 38.167,48.705 38.015,48.533 37.830 C 48.360 37.645,47.776 37.338,47.234 37.148 C 46.693 36.958,46.165 36.732,46.061 36.647 C 45.334 36.048,40.619 35.812,38.184 36.253 " stroke="none" fill="#fc5c5c" fill-rule="evenodd"></path><path id="path2" d="M353.833 49.500 L 353.833 80.500 361.159 80.500 L 368.485 80.500 368.538 67.125 C 368.593 53.210,368.648 52.167,369.329 52.167 C 369.401 52.167,369.554 51.940,369.668 51.662 C 369.783 51.385,370.111 50.994,370.397 50.793 C 370.683 50.593,370.992 50.343,371.083 50.238 C 371.299 49.992,372.577 49.500,373.003 49.500 C 373.185 49.500,373.333 49.425,373.333 49.333 C 373.333 49.235,373.917 49.167,374.750 49.167 C 375.529 49.167,376.167 49.226,376.167 49.299 C 376.167 49.371,376.500 49.520,376.907 49.629 C 378.586 50.078,379.744 51.794,379.998 54.208 C 380.088 55.061,380.162 61.279,380.164 68.125 L 380.167 80.500 387.500 80.500 L 394.833 80.500 394.833 65.507 C 394.833 51.312,394.730 47.435,394.339 46.917 C 394.269 46.825,394.160 46.525,394.096 46.250 C 393.811 45.032,393.461 43.984,393.274 43.792 C 393.163 43.677,392.919 43.228,392.733 42.794 C 392.100 41.316,390.225 39.319,388.510 38.297 C 387.367 37.617,386.512 37.241,385.542 36.993 C 385.060 36.871,384.667 36.719,384.667 36.655 C 384.667 36.425,382.095 36.167,379.804 36.167 C 377.500 36.167,375.333 36.423,375.333 36.695 C 375.333 36.771,375.201 36.833,375.039 36.833 C 374.878 36.833,374.334 36.990,373.831 37.181 C 373.328 37.372,372.785 37.568,372.625 37.617 C 372.465 37.666,372.333 37.764,372.333 37.835 C 372.333 37.906,372.046 38.079,371.695 38.219 C 371.036 38.483,370.694 38.735,369.312 39.981 L 368.500 40.712 368.500 29.606 L 368.500 18.500 361.167 18.500 L 353.833 18.500 353.833 49.500 M284.000 32.250 L 284.000 37.167 280.915 37.167 L 277.829 37.167 277.873 43.292 L 277.917 49.417 280.945 49.462 L 283.974 49.507 284.048 58.295 C 284.122 67.144,284.239 68.920,284.821 70.081 C 284.913 70.266,285.179 70.975,285.412 71.658 C 285.645 72.340,285.892 72.940,285.960 72.991 C 286.028 73.042,286.303 73.496,286.571 74.000 C 286.840 74.504,287.196 75.015,287.363 75.134 C 287.530 75.254,287.667 75.433,287.667 75.532 C 287.667 75.749,290.335 78.333,290.559 78.333 C 290.647 78.333,290.970 78.525,291.278 78.760 C 291.884 79.222,293.533 80.000,293.908 80.000 C 294.035 80.000,294.165 80.077,294.196 80.171 C 294.268 80.387,296.582 80.961,297.958 81.104 C 298.531 81.164,299.000 81.277,299.000 81.356 C 299.000 81.544,306.453 81.544,306.569 81.357 C 306.617 81.278,307.149 81.163,307.750 81.102 C 308.351 81.040,309.066 80.945,309.338 80.891 L 309.833 80.792 309.833 74.646 L 309.833 68.500 309.097 68.500 C 308.692 68.500,308.335 68.580,308.302 68.677 C 308.230 68.892,303.835 68.929,303.684 68.716 C 303.629 68.637,303.171 68.471,302.667 68.347 C 301.563 68.077,300.972 67.790,300.294 67.196 C 299.406 66.420,299.211 66.164,298.641 65.027 L 298.083 63.917 298.027 56.708 L 297.970 49.500 303.652 49.500 L 309.333 49.500 309.333 43.333 L 309.333 37.167 303.667 37.167 L 298.000 37.167 298.000 32.250 L 298.000 27.333 291.000 27.333 L 284.000 27.333 284.000 32.250 M135.833 36.111 C 134.003 36.198,131.500 36.529,131.500 36.685 C 131.500 36.767,131.359 36.833,131.188 36.833 C 130.621 36.833,128.283 37.478,128.167 37.666 C 128.104 37.768,127.985 37.835,127.901 37.816 C 127.649 37.758,125.759 38.681,125.617 38.932 C 125.543 39.061,125.375 39.167,125.242 39.167 C 125.109 39.167,125.000 39.223,125.000 39.293 C 125.000 39.362,124.794 39.510,124.542 39.622 C 124.030 39.849,121.882 41.903,121.511 42.520 C 121.380 42.738,121.172 43.115,121.049 43.357 C 120.927 43.600,120.721 43.886,120.592 43.993 C 120.463 44.100,120.226 44.614,120.064 45.135 C 119.903 45.657,119.722 46.121,119.662 46.167 C 119.024 46.656,119.046 54.500,119.686 54.500 C 119.750 54.500,119.934 54.920,120.096 55.433 C 120.257 55.945,120.489 56.403,120.610 56.450 C 120.732 56.497,120.795 56.594,120.750 56.667 C 120.705 56.739,120.781 56.841,120.918 56.894 C 121.055 56.947,121.167 57.086,121.167 57.204 C 121.167 57.322,121.635 57.853,122.208 58.384 C 122.781 58.914,123.403 59.495,123.589 59.674 C 123.776 59.853,124.051 60.000,124.200 60.000 C 124.350 60.000,124.497 60.056,124.528 60.125 C 124.636 60.369,125.927 61.156,126.613 61.398 C 126.996 61.533,127.484 61.754,127.697 61.890 C 127.909 62.026,128.683 62.301,129.417 62.503 C 130.150 62.704,130.825 62.929,130.917 63.002 C 131.008 63.075,131.946 63.345,133.000 63.601 C 134.054 63.858,134.954 64.114,135.000 64.171 C 135.046 64.228,135.458 64.373,135.917 64.493 C 137.382 64.876,138.333 65.202,138.333 65.320 C 138.333 65.384,138.640 65.571,139.015 65.737 C 139.479 65.941,139.751 66.191,139.865 66.519 C 139.957 66.783,140.100 67.000,140.183 67.000 C 140.266 67.000,140.333 67.150,140.333 67.333 C 140.333 67.517,140.258 67.667,140.167 67.667 C 140.075 67.667,139.997 67.760,139.994 67.875 C 139.973 68.611,138.547 69.413,136.917 69.605 C 136.413 69.664,136.000 69.777,136.000 69.856 C 136.000 69.935,135.287 70.000,134.417 70.000 C 133.546 70.000,132.833 69.936,132.833 69.858 C 132.833 69.780,132.215 69.666,131.458 69.605 C 129.994 69.488,127.166 68.918,127.010 68.709 C 126.959 68.640,126.504 68.445,126.000 68.275 C 125.047 67.955,122.596 66.787,122.217 66.473 C 122.098 66.374,122.000 66.336,122.000 66.388 C 122.000 66.441,121.802 66.300,121.559 66.075 C 121.316 65.851,121.024 65.667,120.910 65.667 C 120.795 65.667,120.525 65.480,120.309 65.253 C 119.329 64.219,119.333 64.191,119.336 71.292 C 119.337 74.844,119.394 77.830,119.461 77.929 C 119.658 78.217,122.671 79.601,123.625 79.842 C 124.106 79.964,124.500 80.115,124.500 80.178 C 124.500 80.336,126.291 80.766,128.000 81.019 C 128.779 81.134,129.456 81.285,129.504 81.355 C 129.808 81.795,140.376 81.787,140.663 81.346 C 140.711 81.273,141.125 81.161,141.583 81.097 C 142.579 80.958,145.049 80.324,145.167 80.177 C 145.212 80.120,145.794 79.857,146.458 79.593 C 147.123 79.330,147.667 79.057,147.667 78.987 C 147.667 78.918,147.853 78.799,148.081 78.722 C 149.095 78.383,151.588 76.039,152.306 74.752 C 152.458 74.478,152.673 74.178,152.783 74.085 C 152.893 73.993,153.142 73.467,153.337 72.917 C 153.531 72.367,153.760 71.767,153.846 71.583 C 154.486 70.211,154.503 63.633,153.869 63.175 C 153.798 63.125,153.609 62.655,153.447 62.132 C 153.286 61.609,152.857 60.805,152.494 60.345 C 152.130 59.886,151.833 59.478,151.833 59.438 C 151.833 59.333,150.649 58.167,150.542 58.167 C 150.492 58.167,150.143 57.915,149.767 57.607 C 149.391 57.299,148.746 56.878,148.333 56.670 C 146.416 55.706,146.032 55.536,145.292 55.322 C 144.856 55.197,144.500 55.041,144.500 54.976 C 144.500 54.912,143.619 54.652,142.542 54.400 C 141.465 54.148,140.546 53.895,140.500 53.839 C 140.454 53.783,139.479 53.534,138.333 53.285 C 137.188 53.036,136.225 52.758,136.194 52.666 C 136.164 52.575,136.042 52.500,135.924 52.500 C 135.399 52.500,133.895 51.676,133.677 51.269 C 133.549 51.029,133.381 50.833,133.305 50.833 C 133.229 50.833,133.167 50.571,133.167 50.250 C 133.167 49.929,133.242 49.667,133.333 49.667 C 133.425 49.667,133.500 49.559,133.500 49.428 C 133.500 49.126,134.264 48.586,134.915 48.428 C 135.189 48.361,135.468 48.219,135.534 48.112 C 135.705 47.836,141.370 47.861,141.463 48.138 C 141.498 48.245,141.714 48.333,141.941 48.333 C 142.532 48.333,146.382 49.147,146.492 49.295 C 146.542 49.364,146.996 49.560,147.500 49.731 C 148.004 49.903,149.007 50.334,149.728 50.688 C 151.864 51.739,151.668 52.278,151.660 45.375 L 151.653 39.417 151.087 39.056 C 150.775 38.858,150.047 38.530,149.469 38.327 C 148.890 38.124,148.326 37.886,148.216 37.798 C 148.105 37.710,147.943 37.682,147.855 37.737 C 147.767 37.791,147.670 37.760,147.639 37.668 C 147.608 37.576,146.833 37.346,145.917 37.158 C 145.000 36.970,144.126 36.749,143.975 36.667 C 143.415 36.364,138.127 36.002,135.833 36.111 M175.750 36.379 C 175.108 36.470,174.546 36.595,174.500 36.655 C 174.454 36.715,173.817 36.898,173.083 37.062 C 172.350 37.226,171.375 37.536,170.917 37.751 C 168.738 38.771,168.193 39.040,167.451 39.464 C 167.012 39.715,166.599 39.994,166.535 40.085 C 166.470 40.176,166.216 40.362,165.971 40.500 C 165.357 40.844,164.283 41.750,163.268 42.781 C 161.820 44.251,161.518 44.616,161.104 45.394 C 160.883 45.809,160.666 46.110,160.621 46.065 C 160.575 46.020,160.372 46.327,160.168 46.747 C 159.965 47.167,159.712 47.603,159.607 47.714 C 159.343 47.995,158.931 48.932,158.657 49.875 C 158.531 50.310,158.376 50.667,158.314 50.667 C 158.251 50.667,158.112 51.033,158.005 51.480 C 157.793 52.365,157.778 52.432,157.598 53.417 C 157.531 53.783,157.396 54.247,157.299 54.447 C 157.202 54.648,157.163 54.966,157.212 55.156 C 157.262 55.345,157.234 55.500,157.151 55.500 C 157.066 55.500,157.000 56.952,157.000 58.833 C 157.000 60.872,157.063 62.167,157.161 62.167 C 157.250 62.167,157.278 62.285,157.222 62.429 C 157.167 62.573,157.204 62.967,157.305 63.304 C 157.406 63.641,157.647 64.648,157.841 65.542 C 158.035 66.435,158.257 67.167,158.333 67.167 C 158.410 67.167,158.635 67.693,158.834 68.336 C 159.033 68.979,159.299 69.609,159.425 69.734 C 159.551 69.860,159.853 70.384,160.096 70.898 C 160.340 71.413,160.607 71.833,160.690 71.833 C 160.774 71.833,160.909 72.002,160.991 72.208 C 161.279 72.930,163.459 75.381,164.558 76.219 C 164.896 76.477,165.370 76.871,165.611 77.094 C 165.852 77.317,166.131 77.501,166.233 77.503 C 166.334 77.504,166.593 77.692,166.809 77.920 C 167.025 78.147,167.288 78.334,167.392 78.334 C 167.497 78.334,167.918 78.557,168.327 78.828 C 168.737 79.100,169.543 79.488,170.119 79.692 C 170.695 79.895,171.167 80.117,171.167 80.185 C 171.167 80.252,172.048 80.508,173.125 80.753 C 174.202 80.998,175.264 81.285,175.484 81.391 C 176.028 81.653,184.794 81.662,184.964 81.401 C 185.030 81.300,185.439 81.170,185.873 81.112 C 186.951 80.968,189.564 80.319,189.667 80.170 C 189.713 80.103,190.295 79.881,190.961 79.676 C 191.627 79.471,192.265 79.213,192.378 79.101 C 192.491 78.989,192.715 78.848,192.875 78.788 C 193.233 78.652,193.338 65.500,192.981 65.500 C 192.709 65.500,191.500 66.205,191.500 66.364 C 191.500 66.439,191.444 66.487,191.375 66.471 C 191.306 66.454,190.809 66.642,190.271 66.887 C 189.732 67.133,189.192 67.333,189.071 67.333 C 188.949 67.333,188.790 67.436,188.717 67.561 C 188.574 67.804,188.477 67.828,185.917 68.253 C 182.791 68.772,178.583 68.380,177.308 67.450 C 177.064 67.273,176.789 67.174,176.697 67.231 C 176.604 67.289,176.503 67.279,176.473 67.209 C 176.442 67.140,175.873 66.672,175.208 66.168 C 174.544 65.665,174.000 65.188,174.000 65.109 C 174.000 65.030,173.777 64.683,173.504 64.338 C 172.972 63.667,172.334 62.317,172.332 61.861 C 172.332 61.708,172.207 61.358,172.055 61.083 C 171.744 60.521,171.642 57.232,171.929 57.030 C 172.017 56.967,172.186 56.542,172.305 56.084 C 172.423 55.626,172.678 54.914,172.870 54.501 C 173.062 54.088,173.201 53.675,173.179 53.583 C 173.157 53.492,173.191 53.469,173.255 53.532 C 173.387 53.665,174.167 52.797,174.167 52.518 C 174.167 52.416,174.232 52.333,174.312 52.333 C 174.393 52.333,174.746 52.070,175.097 51.748 C 175.448 51.426,176.077 51.000,176.493 50.801 C 176.909 50.602,177.293 50.377,177.345 50.300 C 177.477 50.106,179.647 49.500,180.208 49.500 C 180.460 49.500,180.667 49.425,180.667 49.333 C 180.667 49.123,184.224 49.108,184.627 49.316 C 184.786 49.399,185.622 49.591,186.484 49.743 C 188.114 50.031,189.144 50.421,191.448 51.622 C 192.198 52.013,192.892 52.333,192.989 52.333 C 193.194 52.333,193.243 39.372,193.039 39.067 C 192.972 38.966,192.392 38.676,191.750 38.423 C 191.108 38.170,190.493 37.889,190.382 37.800 C 190.272 37.711,190.103 37.686,190.007 37.745 C 189.912 37.805,189.833 37.780,189.833 37.690 C 189.833 37.601,189.102 37.367,188.208 37.170 C 187.315 36.974,186.433 36.744,186.250 36.660 C 185.234 36.193,178.342 36.008,175.750 36.379 M243.514 36.355 C 243.017 36.438,242.530 36.569,242.431 36.646 C 242.331 36.724,241.706 36.950,241.042 37.148 C 240.377 37.347,239.833 37.569,239.833 37.641 C 239.833 37.713,239.402 37.948,238.875 38.164 C 238.348 38.379,237.738 38.731,237.519 38.945 C 237.300 39.158,237.017 39.333,236.891 39.333 C 236.402 39.333,231.891 44.114,231.611 44.929 C 231.535 45.151,231.412 45.333,231.339 45.333 C 231.266 45.333,230.992 45.765,230.730 46.292 C 230.468 46.819,230.202 47.288,230.140 47.335 C 230.078 47.382,229.821 48.019,229.570 48.752 C 229.319 49.484,229.063 50.121,229.002 50.167 C 228.896 50.247,228.470 51.944,228.250 53.167 C 228.192 53.487,228.032 54.238,227.893 54.834 C 227.511 56.481,227.669 62.374,228.151 64.417 C 228.345 65.242,228.540 66.067,228.583 66.250 C 228.626 66.433,228.706 66.790,228.760 67.042 C 228.815 67.294,228.929 67.500,229.013 67.500 C 229.098 67.500,229.167 67.614,229.167 67.753 C 229.167 68.110,229.974 70.379,230.140 70.491 C 230.216 70.542,230.481 70.996,230.730 71.500 C 231.251 72.555,231.823 73.431,232.320 73.934 C 232.511 74.127,232.667 74.364,232.667 74.461 C 232.667 74.558,232.910 74.842,233.208 75.093 C 233.506 75.343,233.881 75.765,234.042 76.030 C 234.203 76.295,234.436 76.550,234.559 76.597 C 234.681 76.644,235.225 77.092,235.766 77.591 C 236.307 78.091,236.834 78.500,236.936 78.500 C 237.038 78.500,237.300 78.675,237.519 78.889 C 237.738 79.103,238.348 79.454,238.875 79.669 C 239.402 79.885,239.833 80.120,239.833 80.192 C 239.833 80.334,242.429 81.167,242.870 81.167 C 243.018 81.167,243.170 81.260,243.208 81.375 C 243.301 81.653,250.284 81.678,250.464 81.401 C 250.530 81.300,250.846 81.177,251.167 81.126 C 252.102 80.978,253.648 80.494,253.875 80.277 C 253.990 80.167,254.421 79.930,254.833 79.749 C 256.202 79.151,258.454 77.260,259.777 75.600 L 260.295 74.949 260.481 75.816 C 260.583 76.293,260.667 76.829,260.667 77.008 C 260.667 77.187,260.737 77.333,260.824 77.333 C 260.910 77.333,260.952 77.482,260.917 77.663 C 260.882 77.845,260.917 78.032,260.995 78.080 C 261.073 78.129,261.225 78.693,261.333 79.334 L 261.530 80.500 267.765 80.500 L 274.000 80.500 274.000 58.917 L 274.000 37.333 267.765 37.333 L 261.530 37.333 261.322 38.500 C 261.207 39.142,261.049 39.667,260.970 39.667 C 260.891 39.667,260.861 39.854,260.902 40.083 C 260.944 40.313,260.908 40.500,260.822 40.500 C 260.737 40.500,260.665 40.669,260.663 40.875 C 260.662 41.081,260.568 41.607,260.454 42.043 L 260.249 42.836 259.528 41.932 C 258.365 40.476,256.121 38.594,255.042 38.172 C 254.744 38.055,254.500 37.889,254.500 37.803 C 254.500 37.717,254.424 37.694,254.332 37.751 C 254.240 37.808,254.052 37.743,253.915 37.606 C 253.687 37.378,252.114 36.833,251.683 36.833 C 251.582 36.833,251.500 36.771,251.500 36.696 C 251.500 36.255,245.625 36.005,243.514 36.355 M330.750 36.379 C 330.108 36.470,329.546 36.595,329.500 36.655 C 329.454 36.715,328.817 36.898,328.083 37.062 C 327.350 37.226,326.375 37.536,325.917 37.751 C 323.738 38.771,323.193 39.040,322.451 39.464 C 322.012 39.715,321.599 39.994,321.535 40.085 C 321.470 40.176,321.216 40.362,320.971 40.500 C 319.710 41.207,316.986 43.901,316.167 45.250 C 315.944 45.617,315.656 46.026,315.525 46.160 C 315.394 46.294,315.187 46.643,315.065 46.935 C 314.943 47.228,314.747 47.568,314.630 47.692 C 314.346 47.992,313.939 48.904,313.657 49.875 C 313.531 50.310,313.375 50.667,313.311 50.667 C 313.162 50.667,312.546 53.286,312.399 54.542 C 312.338 55.069,312.223 55.500,312.144 55.500 C 312.065 55.500,312.000 57.000,312.000 58.833 C 312.000 60.667,312.064 62.167,312.143 62.167 C 312.222 62.167,312.331 62.598,312.386 63.125 C 312.523 64.431,313.165 67.167,313.334 67.167 C 313.410 67.167,313.635 67.693,313.834 68.336 C 314.033 68.979,314.299 69.609,314.425 69.734 C 314.551 69.860,314.850 70.378,315.090 70.886 C 315.330 71.393,315.633 71.849,315.764 71.899 C 315.894 71.949,316.000 72.086,316.000 72.205 C 316.000 72.323,316.171 72.607,316.380 72.835 C 316.589 73.063,316.974 73.532,317.234 73.876 C 317.825 74.656,318.817 75.654,319.586 76.241 C 319.909 76.487,320.370 76.871,320.611 77.094 C 320.852 77.317,321.131 77.501,321.233 77.503 C 321.334 77.504,321.593 77.692,321.809 77.920 C 322.025 78.147,322.288 78.334,322.392 78.334 C 322.497 78.334,322.918 78.557,323.327 78.828 C 323.737 79.100,324.543 79.488,325.119 79.692 C 325.695 79.895,326.167 80.117,326.167 80.185 C 326.167 80.252,327.048 80.508,328.125 80.753 C 329.202 80.998,330.264 81.285,330.484 81.391 C 331.028 81.653,339.794 81.662,339.964 81.401 C 340.030 81.300,340.439 81.170,340.873 81.112 C 341.945 80.969,344.564 80.320,344.667 80.171 C 344.712 80.105,345.200 79.917,345.750 79.752 C 346.300 79.587,347.069 79.273,347.458 79.053 L 348.167 78.653 348.167 72.076 C 348.167 67.355,348.114 65.500,347.981 65.500 C 347.709 65.500,346.500 66.205,346.500 66.364 C 346.500 66.439,346.444 66.488,346.375 66.474 C 346.306 66.460,345.817 66.647,345.287 66.891 C 344.757 67.134,344.217 67.333,344.087 67.333 C 343.957 67.333,343.790 67.436,343.717 67.561 C 343.574 67.804,343.477 67.828,340.917 68.253 C 337.823 68.767,333.531 68.375,332.353 67.472 C 332.134 67.304,331.859 67.167,331.742 67.167 C 331.484 67.167,329.118 65.397,329.000 65.116 C 328.881 64.831,328.280 63.933,328.139 63.830 C 327.957 63.697,327.333 62.174,327.332 61.861 C 327.332 61.708,327.212 61.358,327.065 61.083 C 326.758 60.506,326.701 57.127,326.997 57.029 C 327.090 56.998,327.167 56.874,327.167 56.754 C 327.167 56.076,327.917 54.257,328.503 53.516 C 328.868 53.054,329.167 52.599,329.167 52.505 C 329.167 52.411,329.232 52.333,329.312 52.333 C 329.393 52.333,329.746 52.070,330.097 51.748 C 330.448 51.426,331.077 51.000,331.493 50.801 C 331.909 50.602,332.293 50.377,332.345 50.300 C 332.477 50.106,334.647 49.500,335.208 49.500 C 335.460 49.500,335.667 49.425,335.667 49.333 C 335.667 49.231,336.444 49.167,337.667 49.167 C 338.889 49.167,339.667 49.231,339.667 49.333 C 339.667 49.425,339.846 49.500,340.066 49.500 C 341.559 49.500,343.817 50.251,346.448 51.622 C 347.198 52.013,347.892 52.333,347.989 52.333 C 348.206 52.333,348.237 39.369,348.020 39.027 C 347.943 38.905,347.813 38.799,347.731 38.791 C 347.535 38.773,346.204 38.222,345.610 37.912 C 345.350 37.776,345.069 37.707,344.985 37.759 C 344.902 37.811,344.833 37.780,344.833 37.690 C 344.833 37.601,344.102 37.367,343.208 37.170 C 342.315 36.974,341.433 36.744,341.250 36.660 C 340.234 36.193,333.342 36.008,330.750 36.379 M220.154 37.250 C 219.057 37.469,216.000 38.775,216.000 39.025 C 216.000 39.098,215.790 39.266,215.534 39.399 C 215.278 39.531,214.670 40.040,214.183 40.528 C 212.882 41.833,212.667 42.078,212.666 42.256 C 212.665 42.344,212.490 42.636,212.276 42.903 L 211.886 43.390 211.601 41.820 C 211.012 38.579,210.921 38.167,210.795 38.167 C 210.725 38.167,210.667 37.979,210.667 37.750 L 210.667 37.333 204.750 37.333 L 198.833 37.333 198.833 58.917 L 198.833 80.500 206.167 80.500 L 213.500 80.500 213.501 70.792 C 213.503 60.579,213.631 57.771,214.146 56.612 C 214.316 56.229,214.593 55.548,214.761 55.096 C 215.089 54.219,217.257 51.833,217.727 51.833 C 217.864 51.833,218.098 51.711,218.248 51.562 C 219.191 50.619,224.094 50.254,226.625 50.938 L 227.000 51.039 227.000 44.125 L 227.000 37.210 226.375 37.107 C 225.300 36.929,221.301 37.021,220.154 37.250 M252.500 49.299 C 252.500 49.372,252.952 49.531,253.504 49.654 C 255.184 50.027,257.344 51.770,258.167 53.417 C 258.396 53.875,258.648 54.297,258.726 54.354 C 259.061 54.599,259.504 57.135,259.507 58.833 C 259.512 60.901,259.112 63.208,258.700 63.488 C 258.623 63.541,258.384 63.953,258.168 64.404 C 257.808 65.158,257.009 66.054,255.683 67.193 C 255.399 67.437,255.167 67.597,255.167 67.548 C 255.167 67.499,255.055 67.552,254.919 67.665 C 253.584 68.772,249.143 68.716,247.235 67.567 C 246.717 67.255,246.261 67.000,246.222 67.000 C 246.081 67.000,244.500 65.346,244.500 65.199 C 244.500 65.116,244.313 64.847,244.085 64.601 C 243.678 64.162,242.833 61.964,242.833 61.344 C 242.833 61.170,242.755 61.002,242.660 60.970 C 242.553 60.934,242.487 60.148,242.487 58.917 C 242.487 57.685,242.553 56.899,242.660 56.863 C 242.755 56.832,242.833 56.673,242.833 56.512 C 242.833 56.351,242.987 55.776,243.176 55.234 C 243.364 54.693,243.533 54.144,243.551 54.015 C 243.569 53.886,243.756 53.604,243.967 53.389 C 244.178 53.173,244.298 52.911,244.233 52.806 C 244.160 52.688,244.189 52.661,244.308 52.734 C 244.413 52.799,244.500 52.780,244.500 52.690 C 244.500 52.436,245.682 51.279,246.375 50.855 C 246.719 50.645,247.000 50.414,247.000 50.343 C 247.000 50.187,249.039 49.500,249.503 49.500 C 249.685 49.500,249.833 49.425,249.833 49.333 C 249.833 49.236,250.389 49.167,251.167 49.167 C 251.900 49.167,252.500 49.226,252.500 49.299 " stroke="none" fill="#1c1c2c" fill-rule="evenodd"></path><path id="path3" d="" stroke="none" fill="#1c1c34" fill-rule="evenodd"></path><path id="path4" d="" stroke="none" fill="#c860a4" fill-rule="evenodd"></path></g></svg>